<svg id="Layer_1" enable-background="new 0 0 512 512" height="512" viewBox="0 0 512 512" width="512" xmlns="http://www.w3.org/2000/svg"><g><g><g><g id="XMLID_1403_"><g id="XMLID_1404_"><g id="XMLID_1405_"><g id="XMLID_1406_"><g id="XMLID_1407_"><g id="XMLID_1408_"><g id="XMLID_1409_"><g id="XMLID_1410_"><g id="XMLID_1411_"><g id="XMLID_1412_"><g id="XMLID_1428_"><g id="XMLID_1459_"><g id="XMLID_1460_"><g id="XMLID_1461_"><g id="XMLID_1477_"><circle cx="256" cy="256" fill="#2560e5" r="256"/></g></g></g></g></g></g></g></g></g></g></g></g></g></g></g></g></g><path d="m512 256c0-11.209-.726-22.248-2.123-33.076l-89.464-89.464-318.996 220.106 43.139 43.378-10.496 33.816 77.364 77.364c14.477 2.542 29.37 3.876 44.576 3.876 141.385 0 256-114.615 256-256z" fill="#0d49b2"/><g><path d="m326.411 91.433h-140.822c-69.677 0-126.162 56.485-126.162 126.162v42.016c0 51.321 30.645 95.48 74.633 115.189v55.96s62.524 10.276 93.165-44.986h99.186c69.678 0 126.162-56.485 126.162-126.162v-42.016c0-69.678-56.485-126.163-126.162-126.163z" fill="#ffe69f"/><path d="m452.57 217.6v42.01c0 69.68-56.48 126.16-126.16 126.16h-70.41v-294.34h70.41c69.68 0 126.16 56.49 126.16 126.17z" fill="#ffd261"/><g><path d="m375.804 290.501 15.981-6.031-35.047-92.869-15.166.014-35.352 92.821 15.964 6.08 8.471-22.242h36.762zm-38.645-39.308 11.96-31.403 11.851 31.403z" fill="#ed7600"/><path d="m256 191.076h-17.081v97.491h45.262v-17.081h-28.181z" fill="#ff559a"/><path d="m256 271.486h28.181v17.084h-28.181z" fill="#d82b7a"/><path d="m164.119 191.042c-26.897 0-48.779 21.882-48.779 48.779s21.882 48.779 48.779 48.779 48.779-21.882 48.779-48.779-21.882-48.779-48.779-48.779zm0 80.477c-17.478 0-31.698-14.22-31.698-31.698s14.22-31.698 31.698-31.698 31.698 14.22 31.698 31.698-14.22 31.698-31.698 31.698z" fill="#29cc9a"/></g></g></g></svg>