<svg id="Capa_1" enable-background="new 0 0 512 512" height="512" viewBox="0 0 512 512" width="512" xmlns="http://www.w3.org/2000/svg"><g><g><g><g><path d="m264.251 264.745h222.749v237.255h-222.749z" fill="#ccf5fc"/></g><path d="m306.191 264.745h180.809v-53.575h-222.749" fill="#99ebfa"/></g><path d="m487 168.374c0-23.544-19.086-42.63-42.63-42.63h-137.489c-23.544 0-42.63 19.086-42.63 42.63v42.796h222.749z" fill="#faf7f5"/><path d="m322.146 80.234h106.959v45.511h-106.959z" fill="#ff7d97"/><path d="m352.146 10h46.959v70.234h-46.959z" fill="#99ebfa"/><path d="m244.201 127.856c0 16.583-13.443 30.026-30.026 30.026s-30.026-13.443-30.026-30.026 30.026-47.622 30.026-47.622 30.026 31.039 30.026 47.622z" fill="#faf7f5"/><path d="m303.5 274.245c0 21.677-17.572 39.249-39.249 39.249s-39.249-17.572-39.249-39.249 39.249-62.249 39.249-62.249 39.249 40.572 39.249 62.249z" fill="#faf7f5"/><g><g><g><path d="m179.978 417.699 150.801-81.74c12.439-7.075 28.264-2.498 35.007 10.124 6.124 11.463 2.621 25.698-8.122 33.01l-167.13 113.759z" fill="#ffdcd5"/></g><g><path d="m232.914 426.788 150.801-81.74c12.439-7.075 28.264-2.498 35.007 10.124 6.124 11.463 2.621 25.698-8.122 33.01l-167.13 113.759z" fill="#ffdcd5"/></g><path d="m25 403.307 112.254-44.588c22.751-7.161 46.627-10.061 70.431-8.555l79.139 5.009c17.341-.012 29.11 17.627 22.446 33.636l-.233.56c-3.905 9.38-12.929 15.396-22.94 15.389-34.013-.021-108.692-.021-108.692-.021l113.629 31.546 125.022-70.267c12.572-7.066 28.499-1.918 34.556 11.171 5.306 11.466 1.115 25.088-9.719 31.589l-122.344 73.406c-32.902 19.741-72.499 25.011-109.419 14.563l-98.799-27.961-85.331 23.371z" fill="#ffdcd5"/></g></g></g><g><path d="m444.37 115.745h-5.265v-35.511c0-5.523-4.478-10-10-10h-20v-50.234h27.447c5.522 0 10-4.477 10-10s-4.478-10-10-10h-152.758c-14.373 0-28.291 4.212-40.251 12.182l-31.749 21.156c-4.597 3.063-5.839 9.271-2.776 13.867 1.927 2.892 5.099 4.456 8.33 4.456 1.905 0 3.832-.543 5.536-1.679l31.749-21.156c8.665-5.774 18.748-8.826 29.161-8.826h58.352v50.234h-20c-5.522 0-10 4.477-10 10v35.511h-5.265c-29.021 0-52.63 23.61-52.63 52.63v39.632c-10.741 11.514-39.249 44.155-39.249 66.238 0 23.73 16.871 43.595 39.249 48.228v20.618l-45.935-2.907c-25.131-1.59-50.049 1.437-74.064 8.996-.233.073-.463.155-.689.245l-112.254 44.588c-3.809 1.513-6.309 5.196-6.309 9.294v88.849c0 3.119 1.455 6.059 3.935 7.95 2.479 1.892 5.697 2.521 8.707 1.694l82.646-22.636 96.12 27.203c13.245 3.749 26.859 5.595 40.442 5.594 4.604 0 9.205-.213 13.784-.635 1.122.436 2.342.675 3.617.675h222.749c5.522 0 10-4.477 10-10v-78.772c0-5.523-4.478-10-10-10s-10 4.477-10 10v68.771h-155.419c.707-.408 1.412-.823 2.113-1.244l122.346-73.407c15.25-9.15 21.117-28.223 13.647-44.363-4.054-8.761-11.647-15.489-20.833-18.458-3.304-1.068-6.725-1.621-10.144-1.672-.359-.812-.748-1.611-1.168-2.396-4.543-8.505-12.146-14.664-21.408-17.343-9.229-2.669-18.907-1.539-27.267 3.183l-5.476 2.968c-4.624-7.417-11.714-12.788-20.195-15.241-9.227-2.669-18.904-1.538-27.265 3.184l-33.869 18.358c-1.608-.246-3.244-.381-4.897-.396l-12.914-.817v-21.884c22.22-4.601 39.011-24.219 39.246-47.728h163.503v58.071c0 5.523 4.478 10 10 10s10-4.477 10-10v-164.44c0-29.021-23.609-52.63-52.63-52.63zm-2.834 265.641c3.168 6.845.68 14.933-5.787 18.814l-122.345 73.406c-30.413 18.247-67.424 23.174-101.552 13.516l-98.798-27.961c-.891-.252-1.807-.378-2.724-.378-.889 0-1.777.118-2.642.355l-72.688 19.91v-68.953l105.602-41.946c21.553-6.739 43.907-9.433 66.451-8.005l79.14 5.009c.21.013.421.02.632.02h.018c4.858 0 9.191 2.318 11.889 6.359 2.7 4.046 3.178 8.942 1.311 13.427l-.236.566c-2.335 5.609-7.708 9.232-13.692 9.232h-.01c-34.015-.021-108.697-.021-108.697-.021-5.001 0-9.233 3.695-9.908 8.65-.676 4.956 2.414 9.648 7.233 10.986l113.629 31.545c2.547.707 5.271.378 7.574-.918l125.021-70.266c3.622-2.036 7.793-2.452 11.746-1.175 3.951 1.278 7.088 4.058 8.833 7.828zm-53.056-27.547c.06-.032.119-.065.178-.099 3.651-2.076 7.883-2.576 11.919-1.41 3.505 1.013 6.465 3.172 8.479 6.149l-119.323 67.064-38.895-10.798c13.24.003 25.812.007 35.253.013h.021c14.087 0 26.708-8.456 32.154-21.54l.236-.566c.155-.372.302-.746.443-1.122zm-52.935-9.089c.06-.032.119-.065.178-.099 3.651-2.077 7.885-2.577 11.918-1.41 3.286.95 6.092 2.906 8.09 5.601l-36.371 19.715c-.954-2.836-2.288-5.57-3.994-8.127-.787-1.179-1.639-2.3-2.551-3.359zm26.601-324.75h26.96v50.234h-26.96zm-30 70.234h86.96v25.511h-86.96zm-57.895 78.141c0-17.992 14.638-32.63 32.63-32.63h137.489c17.992 0 32.63 14.638 32.63 32.63v32.796h-202.749zm-10 135.119c-16.128 0-29.249-13.121-29.249-29.249 0-10.299 15.354-31.678 29.249-47.48 13.896 15.804 29.249 37.181 29.249 47.48 0 16.128-13.121 29.249-29.249 29.249zm43.959-48.749c-5.558-11.806-14.566-24.05-22.416-33.574h191.206v33.574z"/><path d="m214.175 167.882c22.07 0 40.026-17.956 40.026-40.026 0-19.633-27.355-48.906-32.839-54.574-1.884-1.948-4.478-3.047-7.188-3.047s-5.304 1.1-7.188 3.047c-5.483 5.668-32.838 34.941-32.838 54.574.001 22.07 17.956 40.026 40.027 40.026zm0-72.77c10.616 12.417 20.026 26.63 20.026 32.743 0 11.042-8.983 20.026-20.026 20.026-11.042 0-20.025-8.984-20.025-20.026-.001-6.113 9.409-20.326 20.025-32.743z"/><path d="m492.55 369.89c-3.577-2.384-8.397-2.178-11.765.486-3.36 2.658-4.66 7.345-3.136 11.352 1.466 3.854 5.219 6.472 9.351 6.472 4.177 0 7.983-2.684 9.402-6.608 1.548-4.278-.086-9.167-3.852-11.702z"/></g></g></svg>