<svg id="Capa_1" enable-background="new 0 0 512 512" height="512" viewBox="0 0 512 512" width="512" xmlns="http://www.w3.org/2000/svg"><g><g><g fill="#ff7b79"><circle cx="256" cy="256" r="140"/><circle cx="482" cy="256" r="20"/><path d="m463.85 136c5.52 9.57 2.24 21.8-7.32 27.32-9.57 5.52-21.8 2.25-27.32-7.32-5.53-9.57-2.25-21.8 7.32-27.32 9.56-5.52 21.79-2.25 27.32 7.32z"/><path d="m456.53 348.68c9.56 5.52 12.84 17.75 7.32 27.32-5.53 9.57-17.76 12.84-27.32 7.32-9.57-5.52-12.85-17.75-7.32-27.32 5.52-9.57 17.75-12.84 27.32-7.32z"/><path d="m376 48.15c9.57 5.53 12.84 17.76 7.32 27.32-5.52 9.57-17.75 12.85-27.32 7.32-9.57-5.52-12.84-17.75-7.32-27.32 5.52-9.56 17.75-12.84 27.32-7.32z"/><path d="m383.32 436.53c5.52 9.56 2.25 21.79-7.32 27.32-9.57 5.52-21.8 2.24-27.32-7.32-5.52-9.57-2.25-21.8 7.32-27.32 9.57-5.53 21.8-2.25 27.32 7.32z"/></g><circle cx="296" cy="196" fill="#fce8d0" r="20"/><circle cx="296" cy="316" fill="#fce8d0" r="20"/><circle cx="256" cy="30" fill="#ff7b79" r="20"/><circle cx="256" cy="482" fill="#ff7b79" r="20"/><circle cx="216" cy="256" fill="#fce8d0" r="40"/><path d="m163.32 55.47c5.52 9.57 2.25 21.8-7.32 27.32-9.57 5.53-21.8 2.25-27.32-7.32-5.52-9.56-2.25-21.79 7.32-27.32 9.57-5.52 21.8-2.24 27.32 7.32z" fill="#ff7b79"/><path d="m156 429.21c9.57 5.52 12.84 17.75 7.32 27.32-5.52 9.56-17.75 12.84-27.32 7.32-9.57-5.53-12.84-17.76-7.32-27.32 5.52-9.57 17.75-12.85 27.32-7.32z" fill="#ff7b79"/><path d="m75.47 128.68c9.57 5.52 12.85 17.75 7.32 27.32-5.52 9.57-17.75 12.84-27.32 7.32-9.56-5.52-12.84-17.75-7.32-27.32 5.53-9.57 17.76-12.84 27.32-7.32z" fill="#ff7b79"/><path d="m82.79 356c5.53 9.57 2.25 21.8-7.32 27.32-9.56 5.52-21.79 2.25-27.32-7.32-5.52-9.57-2.24-21.8 7.32-27.32 9.57-5.52 21.8-2.25 27.32 7.32z" fill="#ff7b79"/><circle cx="30" cy="256" fill="#ff7b79" r="20"/></g><g><circle cx="336" cy="256" r="10"/><circle cx="216" cy="176" r="10"/><circle cx="216" cy="336" r="10"/><path d="m482 226c-13.036 0-24.152 8.361-28.28 20h-48.056c-1.304-19.553-6.419-38.668-15.032-56.184l36.403-21.014c9.499 8.105 23.31 9.629 34.496 3.178 14.318-8.27 19.244-26.651 10.978-40.983-8.275-14.32-26.653-19.246-40.976-10.979-11.547 6.662-16.736 19.586-14.512 31.472l-36.398 21.012c-10.897-16.237-24.889-30.229-41.125-41.125l21.016-36.405c12.11 2.265 24.906-3.131 31.467-14.503 8.269-14.32 3.344-32.703-10.983-40.981-14.33-8.265-32.708-3.337-40.978 10.98-.001.002-.002.003-.002.005-6.514 11.295-4.83 25.101 3.181 34.489l-21.016 36.404c-17.516-8.613-36.631-13.728-56.183-15.032v-48.054c11.639-4.128 20-15.243 20-28.28 0-16.542-13.458-30-30-30s-30 13.458-30 30c0 13.036 8.361 24.152 20 28.28v48.056c-19.553 1.304-38.668 6.419-56.183 15.032l-21.016-36.406c8.012-9.39 9.695-23.195 3.182-34.488-.001-.002-.002-.003-.002-.005-8.269-14.318-26.651-19.246-40.983-10.977-14.322 8.274-19.246 26.657-10.979 40.974 6.535 11.329 19.306 16.782 31.469 14.508l21.016 36.404c-16.237 10.897-30.229 24.889-41.125 41.124l-36.4-21.012c2.228-11.908-2.98-24.818-14.508-31.47-14.322-8.27-32.705-3.344-40.983 10.984-8.263 14.326-3.336 32.708 10.987 40.979 11.175 6.446 24.99 4.929 34.492-3.18l36.401 21.014c-8.613 17.516-13.728 36.631-15.032 56.184h-48.056c-4.128-11.639-15.243-20-28.28-20-16.542 0-30 13.458-30 30s13.458 30 30 30c13.036 0 24.152-8.361 28.28-20h48.055c1.304 19.553 6.419 38.669 15.032 56.184l-36.404 21.016c-9.391-8.013-23.196-9.697-34.489-3.182-.001.001-.003.001-.004.002-14.319 8.269-19.245 26.65-10.978 40.983 8.262 14.299 26.638 19.258 40.976 10.979 11.526-6.65 16.74-19.559 14.512-31.473l36.398-21.012c10.897 16.237 24.889 30.228 41.125 41.125l-21.012 36.399c-11.91-2.228-24.821 2.983-31.472 14.513-8.265 14.319-3.341 32.7 10.985 40.978 14.38 8.295 32.74 3.283 40.979-10.985 6.514-11.294 4.83-25.1-3.181-34.489l21.016-36.404c17.516 8.613 36.631 13.728 56.183 15.032v48.056c-11.639 4.128-20 15.243-20 28.28 0 16.542 13.458 30 30 30s30-13.458 30-30c0-13.036-8.361-24.152-20-28.28v-48.056c19.553-1.304 38.668-6.419 56.183-15.032l21.016 36.405c-8.012 9.391-9.695 23.196-3.18 34.493 8.313 14.393 26.72 19.204 40.983 10.978 14.32-8.274 19.246-26.654 10.979-40.976-6.651-11.528-19.562-16.741-31.473-14.513l-21.012-36.398c16.237-10.896 30.229-24.889 41.125-41.125l36.398 21.013c-2.224 11.884 2.961 24.808 14.509 31.47 14.355 8.289 32.725 3.307 40.981-10.983 8.264-14.326 3.338-32.708-10.98-40.978-.002-.001-.003-.002-.005-.002-11.297-6.515-25.102-4.83-34.49 3.181l-36.404-21.015c8.613-17.516 13.728-36.631 15.032-56.184h48.056c4.128 11.639 15.243 20 28.28 20 16.542 0 30-13.458 30-30s-13.457-30.001-29.999-30.001zm-40.473-88.658c.001-.001.002-.001.003-.002 4.752-2.742 10.888-1.136 13.657 3.657 2.756 4.777 1.115 10.907-3.653 13.661-4.782 2.757-10.906 1.118-13.664-3.658-.001-.001-.001-.002-.002-.003-2.765-4.788-1.132-10.892 3.659-13.655zm-84.186-76.874c2.758-4.771 8.886-6.412 13.656-3.658 4.776 2.759 6.419 8.887 3.661 13.663-2.751 4.77-8.844 6.438-13.661 3.655-4.771-2.752-6.411-8.88-3.656-13.66zm-101.341-40.468c5.514 0 10 4.486 10 10s-4.486 10-10 10-10-4.486-10-10 4.486-10 10-10zm-118.66 50.469c-2.756-4.772-1.113-10.9 3.657-13.656 4.754-2.744 10.894-1.138 13.663 3.658 2.754 4.779 1.114 10.905-3.663 13.661-4.725 2.732-10.859 1.188-13.657-3.663zm-76.869 84.191c-4.773-2.756-6.415-8.886-3.663-13.657 2.755-4.767 8.881-6.424 13.662-3.663.001.001.002.001.003.002 4.773 2.753 6.433 8.847 3.657 13.658-.001.001-.001.003-.002.004-2.753 4.771-8.882 6.41-13.657 3.656zm-30.471 111.34c-5.514 0-10-4.486-10-10s4.486-10 10-10 10 4.486 10 10-4.486 10-10 10zm40.47 108.66c-4.773 2.755-10.902 1.112-13.658-3.656-2.756-4.778-1.115-10.908 3.658-13.664 4.78-2.754 10.902-1.115 13.658 3.66 0 .001.001.001.002.002 2.766 4.786 1.136 10.892-3.66 13.658zm84.19 76.869c-2.756 4.773-8.885 6.412-13.657 3.662-4.776-2.76-6.419-8.888-3.663-13.66 0-.002.001-.003.002-.005 2.762-4.789 8.865-6.425 13.66-3.654 4.773 2.753 6.413 8.882 3.658 13.657zm101.34 40.471c-5.514 0-10-4.486-10-10s4.486-10 10-10 10 4.486 10 10-4.486 10-10 10zm118.658-50.473c.001.001.001.002.002.003 2.756 4.773 1.113 10.901-3.657 13.657-4.776 2.757-10.907 1.115-13.661-3.653-2.756-4.779-1.118-10.906 3.658-13.664.001-.001.002-.001.003-.002 4.812-2.777 10.902-1.115 13.655 3.659zm76.873-84.186c4.771 2.757 6.412 8.885 3.659 13.656-2.759 4.775-8.889 6.419-13.663 3.661-4.784-2.76-6.43-8.86-3.655-13.661 2.758-4.782 8.89-6.405 13.659-3.656zm-86.612-50.001c-4.783-2.764-10.899-1.123-13.659 3.661-2.762 4.782-1.122 10.898 3.661 13.659l8.324 4.805c-10.968 15.981-25.409 29.402-42.244 39.139-16.789 9.715-35.628 15.504-55.001 16.996v-9.6c0-5.522-4.478-10-10-10s-10 4.478-10 10v9.6c-19.373-1.491-38.213-7.281-55.003-16.997-16.833-9.736-31.273-23.156-42.241-39.138l8.324-4.805c4.783-2.761 6.422-8.877 3.661-13.659-2.762-4.784-8.878-6.423-13.66-3.661l-8.337 4.813c-8.352-17.437-12.744-36.653-12.744-56.153s4.392-38.715 12.744-56.152l8.337 4.813c4.762 2.749 10.887 1.144 13.66-3.661 2.761-4.782 1.122-10.898-3.661-13.659l-8.324-4.805c21.659-31.561 56.73-53.016 97.245-56.135v9.6c0 5.522 4.478 10 10 10s10-4.478 10-10v-9.6c40.514 3.118 75.583 24.573 97.244 56.135l-8.323 4.805c-4.783 2.761-6.423 8.877-3.661 13.659 2.768 4.797 8.888 6.416 13.659 3.661l8.337-4.813c8.35 17.437 12.743 36.652 12.743 56.152 0 19.499-4.392 38.714-12.744 56.153zm117.081-41.34c-5.514 0-10-4.486-10-10s4.486-10 10-10 10 4.486 10 10-4.486 10-10 10z"/><path d="m296 226c16.542 0 30-13.458 30-30s-13.458-30-30-30-30 13.458-30 30 13.458 30 30 30zm0-40c5.514 0 10 4.486 10 10s-4.486 10-10 10-10-4.486-10-10 4.486-10 10-10z"/><path d="m296 286c-16.542 0-30 13.458-30 30s13.458 30 30 30 30-13.458 30-30-13.458-30-30-30zm0 40c-5.514 0-10-4.486-10-10s4.486-10 10-10 10 4.486 10 10-4.486 10-10 10z"/><circle cx="244" cy="284" r="10"/><path d="m216 206c-27.57 0-50 22.43-50 50 0 19.776 11.687 37.729 29.775 45.737 5.049 2.236 10.955-.043 13.192-5.095 2.236-5.051-.045-10.957-5.096-13.192-10.856-4.807-17.871-15.582-17.871-27.45 0-16.542 13.458-30 30-30 11.868 0 22.643 7.015 27.45 17.872 2.236 5.049 8.14 7.335 13.192 5.095 5.05-2.235 7.331-8.142 5.095-13.192-8.008-18.087-25.961-29.775-45.737-29.775z"/></g></g></svg>