<svg height="512" viewBox="0 0 60 60" width="512" xmlns="http://www.w3.org/2000/svg"><g id="Page-1" fill="none" fill-rule="evenodd"><g id="049---Group-Of-Virus'" fill-rule="nonzero"><g id="Icons" transform="translate(5 5)"><circle id="Oval" cx="38" cy="12" fill="#a3c300" r="12"/><path id="Shape" d="m38 0c-.5016016.00186626-1.0025897.03526546-1.5.1 5.9981525.75148557 10.4985957 5.85095539 10.4985957 11.896 0 6.0450446-4.5004432 11.1445144-10.4985957 11.896 4.4513412.6000263 8.8650932-1.3360521 11.4384127-5.0174236 2.5733196-3.6813716 2.8753186-8.4916109.7826423-12.4659255-2.0926763-3.97431455-6.2296207-6.44722719-10.721055-6.4086509z" fill="#8fab00"/><circle id="Oval" cx="34" cy="9" fill="#008900" r="2"/><circle id="Oval" cx="42" cy="15" fill="#008900" r="3"/><circle id="Oval" cx="12" cy="32" fill="#ffdb00" r="12"/><path id="Shape" d="m12 20c-.5016016.0018663-1.0025897.0352655-1.5.1 5.9981525.7514856 10.4985957 5.8509554 10.4985957 11.896s-4.5004432 11.1445144-10.4985957 11.896c4.4513412.6000263 8.8650932-1.3360521 11.4384127-5.0174236 2.5733196-3.6813716 2.8753186-8.4916109.7826423-12.4659255s-6.2296207-6.4472272-10.721055-6.4086509z" fill="#fdc008"/><circle id="Oval" cx="8" cy="29" fill="#ff9701" r="2"/><circle id="Oval" cx="16" cy="35" fill="#ff9701" r="3"/><circle id="Oval" cx="42" cy="42" fill="#9c27af" r="9"/><path id="Shape" d="m42 33c-.5028835.0032224-1.0046224.0483789-1.5.135 4.3297277.7267089 7.5010833 4.4747098 7.5010833 8.865s-3.1713556 8.1382911-7.5010833 8.865c3.3570875.5877651 6.7581917-.7711782 8.7859125-3.5104942 2.0277208-2.7393161 2.334161-6.389019.7916126-9.4281058-1.5425485-3.0390868-4.6694296-4.9461397-8.0775251-4.9264z" fill="#6a1b99"/></g><g id="Icons_copy" fill="#000"><path id="Shape" d="m59 16h-3.051c-.1223681-1.5990085-.5422296-3.1611105-1.238-4.606l2.645-1.528c.3119508-.17736158.5049532-.50827321.5057421-.8671183s-.1907567-.69060211-.5019247-.86933356c-.3111679-.17873145-.694247-.17703252-1.0038174.00445186l-2.638 1.524c-.9090249-1.32202317-2.0529768-2.46597513-3.375-3.375l1.523-2.639c.1814844-.30957042.1831833-.69264947.0044519-1.00381742-.1787315-.31116795-.5104885-.50271357-.8693336-.50192468-.3588451.00078888-.6897567.19379132-.8671183.5057421l-1.528 2.645c-1.444717-.6962348-3.006908-1.11612027-4.606-1.238v-3.051c0-.55228475-.4477153-1-1-1s-1 .44771525-1 1v3.051c-1.599092.12187973-3.161283.5417652-4.606 1.238l-1.528-2.645c-.1773616-.31195078-.5082732-.50495322-.8671183-.5057421-.3588451-.00078889-.6906021.19075673-.8693336.50192468-.1787314.31116795-.1770325.694247.0044519 1.00381742l1.523 2.639c-1.3220232.90902487-2.4659751 2.05297683-3.375 3.375l-2.638-1.524c-.3095704-.18148438-.6926495-.18318331-1.0038174-.00445186-.311168.17873145-.5027136.51048847-.5019247.86933356s.1937913.68975672.5057421.8671183l2.645 1.528c-.6957704 1.4448895-1.1156319 3.0069915-1.238 4.606h-3.051c-.5522847 0-1 .4477153-1 1s.4477153 1 1 1h3.051c.1223681 1.5990085.5422296 3.1611105 1.238 4.606l-2.645 1.528c-.3119508.1773616-.5049532.5082732-.5057421.8671183s.1907567.6906021.5019247.8693336c.3111679.1787314.694247.1770325 1.0038174-.0044519l2.638-1.524c.9090249 1.3220232 2.0529768 2.4659751 3.375 3.375l-1.523 2.639c-.1814844.3095704-.1831833.6926495-.0044519 1.0038174.1787315.311168.5104885.5027136.8693336.5019247s.6897567-.1937913.8671183-.5057421l1.528-2.645c1.444717.6962348 3.006908 1.1161203 4.606 1.238v3.051c0 .5522847.4477153 1 1 1s1-.4477153 1-1v-3.051c1.599092-.1218797 3.161283-.5417652 4.606-1.238l1.528 2.645c.1773616.3119508.5082732.5049532.8671183.5057421s.6906021-.1907567.8693336-.5019247c.1787314-.3111679.1770325-.694247-.0044519-1.0038174l-1.523-2.639c1.3220232-.9090249 2.4659751-2.0529768 3.375-3.375l2.638 1.524c.3095704.1814844.6926495.1831833 1.0038174.0044519.311168-.1787315.5027136-.5104885.5019247-.8693336s-.1937913-.6897567-.5057421-.8671183l-2.645-1.528c.6957704-1.4448895 1.1156319-3.0069915 1.238-4.606h3.051c.5522847 0 1-.4477153 1-1s-.4477153-1-1-1zm-16 12c-6.0751322 0-11-4.9248678-11-11s4.9248678-11 11-11 11 4.9248678 11 11c-.0071635 6.0721626-4.9278374 10.9928365-11 11z"/><path id="Shape" d="m39 11c-1.6568542 0-3 1.3431458-3 3s1.3431458 3 3 3 3-1.3431458 3-3-1.3431458-3-3-3zm0 4c-.5522847 0-1-.4477153-1-1s.4477153-1 1-1 1 .4477153 1 1-.4477153 1-1 1z"/><path id="Shape" d="m47 16c-2.209139 0-4 1.790861-4 4s1.790861 4 4 4 4-1.790861 4-4-1.790861-4-4-4zm0 6c-1.1045695 0-2-.8954305-2-2s.8954305-2 2-2 2 .8954305 2 2-.8954305 2-2 2z"/><circle id="Oval" cx="45" cy="11" r="1"/><circle id="Oval" cx="39" cy="21" r="1"/><path id="Shape" d="m1 38h3.051c.12236809 1.5990085.54222963 3.1611105 1.238 4.606l-2.645 1.528c-.31195078.1773616-.50495322.5082732-.5057421.8671183-.00078889.3588451.19075673.6906021.50192468.8693336.31116795.1787314.694247.1770325 1.00381742-.0044519l2.638-1.524c.90902487 1.3220232 2.05297683 2.4659751 3.375 3.375l-1.523 2.639c-.18148438.3095704-.18318331.6926495-.00445186 1.0038174.17873145.311168.51048847.5027136.86933356.5019247s.68975672-.1937913.8671183-.5057421l1.528-2.645c1.444717.6962348 3.006908 1.1161203 4.606 1.238v3.051c0 .5522847.4477153 1 1 1s1-.4477153 1-1v-3.051c1.599092-.1218797 3.161283-.5417652 4.606-1.238l1.528 2.645c.1773616.3119508.5082732.5049532.8671183.5057421s.6906021-.1907567.8693336-.5019247c.1787314-.3111679.1770325-.694247-.0044519-1.0038174l-1.523-2.639c1.3220232-.9090249 2.4659751-2.0529768 3.375-3.375l2.638 1.524c.3095704.1814844.6926495.1831833 1.0038174.0044519.311168-.1787315.5027136-.5104885.5019247-.8693336s-.1937913-.6897567-.5057421-.8671183l-2.645-1.528c.6957704-1.4448895 1.1156319-3.0069915 1.238-4.606h3.051c.5522847 0 1-.4477153 1-1s-.4477153-1-1-1h-3.051c-.1223681-1.5990085-.5422296-3.1611105-1.238-4.606l2.645-1.528c.3119508-.1773616.5049532-.5082732.5057421-.8671183s-.1907567-.6906021-.5019247-.8693336c-.3111679-.1787314-.694247-.1770325-1.0038174.0044519l-2.638 1.524c-.9090249-1.3220232-2.0529768-2.4659751-3.375-3.375l1.523-2.639c.1814844-.3095704.1831833-.6926495.0044519-1.0038174-.1787315-.311168-.5104885-.5027136-.8693336-.5019247s-.6897567.1937913-.8671183.5057421l-1.528 2.645c-1.444717-.6962348-3.006908-1.1161203-4.606-1.238v-3.051c0-.5522847-.4477153-1-1-1s-1 .4477153-1 1v3.051c-1.599092.1218797-3.161283.5417652-4.606 1.238l-1.528-2.645c-.17736158-.3119508-.50827321-.5049532-.8671183-.5057421s-.69060211.1907567-.86933356.5019247c-.17873145.3111679-.17703252.694247.00445186 1.0038174l1.523 2.639c-1.32202317.9090249-2.46597513 2.0529768-3.375 3.375l-2.638-1.524c-.30957042-.1814844-.69264947-.1831833-1.00381742-.0044519-.31116795.1787315-.50271357.5104885-.50192468.8693336.00078888.3588451.19379132.6897567.5057421.8671183l2.645 1.528c-.69577037 1.4448895-1.11563191 3.0069915-1.238 4.606h-3.051c-.55228475 0-1 .4477153-1 1s.44771525 1 1 1zm16-12c6.0751322 0 11 4.9248678 11 11s-4.9248678 11-11 11-11-4.9248678-11-11c.0071635-6.0721626 4.9278374-10.9928365 11-11z"/><path id="Shape" d="m13 37c1.6568542 0 3-1.3431458 3-3s-1.3431458-3-3-3-3 1.3431458-3 3 1.3431458 3 3 3zm0-4c.5522847 0 1 .4477153 1 1s-.4477153 1-1 1-1-.4477153-1-1 .4477153-1 1-1z"/><path id="Shape" d="m21 44c2.209139 0 4-1.790861 4-4s-1.790861-4-4-4-4 1.790861-4 4 1.790861 4 4 4zm0-6c1.1045695 0 2 .8954305 2 2s-.8954305 2-2 2-2-.8954305-2-2 .8954305-2 2-2z"/><circle id="Oval" cx="19" cy="31" r="1"/><circle id="Oval" cx="13" cy="41" r="1"/><path id="Shape" d="m59 48c.5522847 0 1-.4477153 1-1s-.4477153-1-1-1h-2.051c-.1093974-1.072167-.3931304-2.1192771-.84-3.1l1.784-1.03c.4742136-.2780058.6351286-.886647.3602745-1.3626943-.274854-.4760473-.8824145-.640996-1.3602745-.3693057l-1.788 1.032c-.6307136-.8732635-1.3974588-1.6396711-2.271-2.27l1.032-1.788c.2716903-.47786.1067416-1.0854205-.3693057-1.3602745-.4760473-.2748541-1.0846885-.1139391-1.3626943.3602745l-1.034 1.779c-.9807229-.4468696-2.027833-.7306026-3.1-.84v-2.051c0-.5522847-.4477153-1-1-1s-1 .4477153-1 1v2.051c-1.072167.1093974-2.1192771.3931304-3.1.84l-1.03-1.784c-.1773616-.3119508-.5082732-.5049532-.8671183-.5057421s-.6906021.1907567-.8693336.5019247c-.1787314.3111679-.1770325.694247.0044519 1.0038174l1.028 1.793c-.8714475.6295344-1.6364656 1.3945525-2.266 2.266l-1.788-1.032c-.47786-.2716903-1.0854205-.1067416-1.3602745.3693057-.2748541.4760473-.1139391 1.0846885.3602745 1.3626943l1.784 1.03c-.4468696.9807229-.7306026 2.027833-.84 3.1h-2.056c-.5522847 0-1 .4477153-1 1s.4477153 1 1 1h2.051c.1093974 1.072167.3931304 2.1192771.84 3.1l-1.784 1.03c-.3119508.1773616-.5049532.5082732-.5057421.8671183s.1907567.6906021.5019247.8693336c.3111679.1787314.694247.1770325 1.0038174-.0044519l1.793-1.024c.6306308.8736196 1.3973804 1.6403692 2.271 2.271l-1.032 1.788c-.1814844.3095704-.1831833.6926495-.0044519 1.0038174.1787315.311168.5104885.5027136.8693336.5019247s.6897567-.1937913.8671183-.5057421l1.03-1.784c.9807229.4468696 2.027833.7306026 3.1.84v2.051c0 .5522847.4477153 1 1 1s1-.4477153 1-1v-2.051c1.072167-.1093974 2.1192771-.3931304 3.1-.84l1.03 1.784c.2780058.4742136.886647.6351286 1.3626943.3602745.4760473-.274854.640996-.8824145.3693057-1.3602745l-1.032-1.788c.8736196-.6306308 1.6403692-1.3973804 2.271-2.271l1.788 1.032c.1518701.0881308.3244113.1343718.5.134.4525881-.0000199.8487411-.3040116.9658809-.7411777.1171399-.4371661-.0739396-.8985084-.4658809-1.1248223l-1.781-1.034c.4468696-.9807229.7306026-2.027833.84-3.1zm-12 7c-4.418278 0-8-3.581722-8-8s3.581722-8 8-8 8 3.581722 8 8c-.0049599 4.4162219-3.5837781 7.9950401-8 8z"/><circle id="Oval" cx="48" cy="43" r="1"/><circle id="Oval" cx="43" cy="44" r="1"/><circle id="Oval" cx="51" cy="49" r="1"/><circle id="Oval" cx="44" cy="50" r="1"/></g></g></g></svg>